<svg xmlns="http://www.w3.org/2000/svg" width="877.1" height="357.8" viewBox="0 0 877.1 357.8">
  <g id="Symbol_1_1" data-name="Symbol 1 – 1" transform="translate(-136 -900)">
    <g id="Group_111" data-name="Group 111" transform="translate(136 899.6)" opacity="0.797">
      <path id="Path_449" data-name="Path 449" d="M210.7,345.1l-6.3-1.8-3.2-11,3.2-21.7,5.3-7.6,3.5,1.2,5.3,10.4,1.2,16.7L217,341.9l-3,2.9Z" fill="#3eaafa" opacity="0.23"/>
      <path id="Path_450" data-name="Path 450" d="M240,291.8V264.1l3.8-6.5,5.8-4.2h6.8l6.1,5.8,4.9,8.7v24H240Z" fill="#3eaafa" opacity="0.23"/>
      <path id="Path_451" data-name="Path 451" d="M263.8,180.8a18.107,18.107,0,0,1,2.2-1.2,26.368,26.368,0,0,1,4,0l4.8-6.1,7-1.7,5,1,4.2,4,4.9,1.1,5.1,6.6-1.4,5.4-2.2,2.9-8.1,2H266l-4.4-3.9-1.4-5.8,3-3.8Z" fill="#3eaafa" opacity="0.23"/>
      <path id="Path_452" data-name="Path 452" d="M561.5,76s1.7-1,2.3-1.3c.7-.3,4.2,0,4.2,0l5-6.3,7.3-1.7,5.2,1,4.4,4.2L595,73l5.3,6.9-1.5,5.6-2.3,3-8.5,2H563.6l-4.6-4-1.4-6,3.1-3.9Z" fill="#3eaafa" opacity="0.23"/>
      <path id="Path_453" data-name="Path 453" d="M614,173.5V356.1h33.9S651.8,219.7,614,173.5Z" fill="#3eaafa" opacity="0.23"/>
      <rect id="Rectangle_83" data-name="Rectangle 83" width="19.6" height="17" transform="translate(520.2 90.6)" fill="#3eaafa" opacity="0.23"/>
      <circle id="Ellipse_46" data-name="Ellipse 46" cx="13.5" cy="13.5" r="13.5" transform="translate(518.1 158.1)" fill="#3eaafa" opacity="0.23"/>
      <path id="Path_898" data-name="Path 898" d="M18.2,0A18.2,18.2,0,1,1,0,18.2,18.2,18.2,0,0,1,18.2,0Z" transform="translate(733.2 299.3)" fill="#3eaafa" opacity="0.23"/>
      <circle id="Ellipse_48" data-name="Ellipse 48" cx="18.2" cy="18.2" r="18.2" transform="translate(459.4 291.9)" fill="#3eaafa" opacity="0.23"/>
      <rect id="Rectangle_84" data-name="Rectangle 84" width="26.6" height="151.9" transform="translate(504.5 202.3)" fill="#3eaafa" opacity="0.23"/>
      <path id="Path_454" data-name="Path 454" d="M334.2,325.7c4.5,4.5,8.1,10,13.3,13.7V239H325a4.012,4.012,0,0,0-4,4v68.7C325.8,315.9,329.7,321.2,334.2,325.7Z" fill="#3eaafa" opacity="0.23"/>
      <path id="Path_455" data-name="Path 455" d="M146.4,355.4V284.6c-4.8,3.4-9.7,6.8-14.6,10.2v59.9c.1.2.3.5.4.7Z" fill="#3eaafa" opacity="0.23"/>
      <path id="Path_456" data-name="Path 456" d="M411.9,227.5H397.7a4.268,4.268,0,0,0-4.3,4.3v65.6c3,1.4,6,2.8,8,5.6a18.522,18.522,0,0,1,3,11.9c-.4,7.8-4.8,14.3-11.1,18.7V351a25.861,25.861,0,0,1,4-4.1c3.1-2.5,6.5-4.3,9.5-7a52.683,52.683,0,0,1,5.1-4.3Z" fill="#3eaafa" opacity="0.23"/>
      <g id="Group_110" data-name="Group 110">
        <path id="Path_457" data-name="Path 457" d="M408.6,156.1a2.006,2.006,0,0,0-2,2v10.5a2,2,0,1,0,4,0V158.1A2.006,2.006,0,0,0,408.6,156.1Z" fill="#3eaafa"/>
        <path id="Path_458" data-name="Path 458" d="M416.9,156.1a2.006,2.006,0,0,0-2,2v10.5a2,2,0,1,0,4,0V158.1A2.006,2.006,0,0,0,416.9,156.1Z" fill="#3eaafa"/>
        <path id="Path_459" data-name="Path 459" d="M408.6,180a2.006,2.006,0,0,0-2,2v10.5a2,2,0,0,0,4,0V182A2.006,2.006,0,0,0,408.6,180Z" fill="#3eaafa"/>
        <path id="Path_460" data-name="Path 460" d="M416.9,180a2.006,2.006,0,0,0-2,2v10.5a2,2,0,0,0,4,0V182A2.006,2.006,0,0,0,416.9,180Z" fill="#3eaafa"/>
        <path id="Path_461" data-name="Path 461" d="M408.6,203.9a2.006,2.006,0,0,0-2,2v10.5a2,2,0,0,0,4,0V205.9A2.006,2.006,0,0,0,408.6,203.9Z" fill="#3eaafa"/>
        <path id="Path_462" data-name="Path 462" d="M416.9,203.9a2.006,2.006,0,0,0-2,2v10.5a2,2,0,0,0,4,0V205.9A2.006,2.006,0,0,0,416.9,203.9Z" fill="#3eaafa"/>
        <path id="Path_463" data-name="Path 463" d="M524.2,332.3v-11c0-2.2-1.1-2.5-2.2-2.5-.9,0-1.9.3-1.9,2.4v19.7c0,2.5.9,2.7,1.9,2.7h.2c1.3,0,2-.5,2-2.9v-8.4Z" fill="#3eaafa"/>
        <path id="Path_464" data-name="Path 464" d="M541.7,321.2c0-2-1.1-2.3-2.2-2.3h0c-1,0-1.8.3-1.8,2.3v20a2.507,2.507,0,0,0,.6,2,1.955,1.955,0,0,0,1.4.4h0a2.07,2.07,0,0,0,1.5-.5,2.546,2.546,0,0,0,.6-1.9V330.3C541.7,330.2,541.7,323.6,541.7,321.2Z" fill="#3eaafa"/>
        <path id="Path_465" data-name="Path 465" d="M522,267.1c-.1,0-.3-.1-.4-.1a1.136,1.136,0,0,0-.8.3,2.311,2.311,0,0,0-.5,1.7v4.4c0,4,0,8.2.2,12.2,0,.7,1.3,2,2,2.2.2,0,.3.1.5.1,1.3,0,1.4-1.8,1.4-2.3v-7.1h0v-3.3a26.72,26.72,0,0,0-.2-5.7A4.03,4.03,0,0,0,522,267.1Z" fill="#3eaafa"/>
        <path id="Path_466" data-name="Path 466" d="M541.8,276.5v-1.4a24.87,24.87,0,0,0-.2-5.5,3.563,3.563,0,0,0-2-2.3c-.1,0-.3-.1-.4-.1a1.136,1.136,0,0,0-.8.3,2.86,2.86,0,0,0-.5,1.7V286a2.969,2.969,0,0,0,.5,1.8.908.908,0,0,0,.7.3.6.6,0,0,0,.4-.1,3.973,3.973,0,0,0,2.1-2.3,37.072,37.072,0,0,0,.2-5.8v-3.4Z" fill="#3eaafa"/>
        <path id="Path_467" data-name="Path 467" d="M521.9,216.1c-.2,0-.3-.1-.4-.1-.9,0-1.3,1-1.4,2v3.2c0,4.4-.1,9,.1,13.4a3.142,3.142,0,0,0,2.1,2.1c.2,0,.3.1.5.1,1.3,0,1.4-1.8,1.4-2.3v-6.8h0v-3.4a29.62,29.62,0,0,0-.2-6A3.777,3.777,0,0,0,521.9,216.1Z" fill="#3eaafa"/>
        <path id="Path_468" data-name="Path 468" d="M539.4,216.1H539a1.136,1.136,0,0,0-.8.3,2.445,2.445,0,0,0-.6,1.8v16.5c0,1.9.7,2.3,1.8,2.3h.1c1,0,2-.3,2-2.3v-8.6h0v-1.6a29.62,29.62,0,0,0-.2-6C541.5,217.6,540.2,216.3,539.4,216.1Z" fill="#3eaafa"/>
        <path id="Path_469" data-name="Path 469" d="M553.7,149.1h0c-3.3,0-6.5.1-9.8.1H517.7c-3.4,0-6.8,0-10.3-.1a3.048,3.048,0,0,0-2.2.6,3.343,3.343,0,0,0-.6,2.3v1.7c0,12.7.1,25.4,0,38,0,1.3.2,2.2.7,2.6a3.4,3.4,0,0,0,2.5.7h45.5c3.2,0,3.7-.5,3.7-3.6V152.3a3.4,3.4,0,0,0-.7-2.5A3.524,3.524,0,0,0,553.7,149.1Zm-1.1,41.7H508.8V153.3h43.8Z" fill="#3eaafa"/>
        <path id="Path_470" data-name="Path 470" d="M530.7,187.9h0c8.5,0,15.9-7.3,16-15.5A16.042,16.042,0,0,0,542,161a15.6,15.6,0,0,0-11.1-4.7A16.162,16.162,0,0,0,514.7,172a15.538,15.538,0,0,0,4.6,11A17.347,17.347,0,0,0,530.7,187.9Zm.2-27.8h.2a11.853,11.853,0,0,1-.3,23.7h-.2a11.855,11.855,0,0,1,.3-23.7Z" fill="#3eaafa"/>
        <path id="Path_471" data-name="Path 471" d="M629.8,278.9c-2.4,0-3,.5-3,3v30.3c0,2.3.5,2.8,2.9,2.8h35.8c2.6,0,2.9-.2,2.8-2.7-.1-6.3-.2-12.5-.5-18.8-.2-4.1-.8-8.1-1.3-12.2a2.378,2.378,0,0,0-2.7-2.3C652.5,279,641.1,278.9,629.8,278.9ZM631,311V283.1h31.9q.9,13.8,1.8,27.9Z" fill="#3eaafa"/>
        <path id="Path_472" data-name="Path 472" d="M629.7,237.4c-2.3,0-3,.7-3,3v29.9c0,2.8.5,3.4,3.3,3.4h32.8q3.3,0,2.7-3a167.03,167.03,0,0,0-9.1-31,3.073,3.073,0,0,0-3.3-2.3C645.4,237.5,637.6,237.4,629.7,237.4ZM661,268a8.48,8.48,0,0,1,0,1.6H631V241.9a6.752,6.752,0,0,1,1.4-.2h19a1.859,1.859,0,0,1,2.1,1.3C656,251.2,658.5,259.6,661,268Z" fill="#3eaafa"/>
        <path id="Path_473" data-name="Path 473" d="M629,232.2q11.1.15,22.2,0a2,2,0,0,0,1.9-2.9,68.547,68.547,0,0,0-9.2-17.3c-4.2-5.5-8.7-10.7-13.2-16-.6-.7-2-1.4-2.5-1.1a3.667,3.667,0,0,0-1.5,2.6c-.1,5.2-.1,10.4-.1,15.6v16.3C626.7,231.1,627.4,232.2,629,232.2Zm19.3-4.7-.5.5H631v-3.3c5,0,10-.1,15,.1C646.8,224.9,647.5,226.6,648.3,227.5Zm-17.4-25.2c5.2,5.9,10.2,11.5,13.9,18.4H630.9Z" fill="#3eaafa"/>
        <path id="Path_474" data-name="Path 474" d="M657.4,336.9H636c-1.3,0-2.5.3-2.5,1.8,0,1.7,1.1,2,2.6,2h21.3c1.4,0,2.5-.4,2.5-1.9C660.1,337.3,658.9,336.9,657.4,336.9Z" fill="#3eaafa"/>
        <path id="Path_475" data-name="Path 475" d="M658.1,295.1H636.3c-1.5,0-2.8.2-2.8,2.1,0,1.7,1.4,1.9,2.7,1.9H658c1.4,0,2.9-.1,2.9-1.9C661,295.3,659.6,295.1,658.1,295.1Z" fill="#3eaafa"/>
        <path id="Path_476" data-name="Path 476" d="M636,253.7c-1.4,0-2.4.5-2.4,2,.1,1.5,1.1,1.9,2.5,1.9h16.4c1.4,0,2.4-.6,2.4-2.1,0-1.4-1-1.9-2.3-1.9C647.1,253.7,641.6,253.7,636,253.7Z" fill="#3eaafa"/>
        <path id="Path_477" data-name="Path 477" d="M332.3,260.2a2.006,2.006,0,0,0,2-2v-9.7a2,2,0,0,0-4,0v9.7A2.006,2.006,0,0,0,332.3,260.2Z" fill="#3eaafa"/>
        <path id="Path_478" data-name="Path 478" d="M341.9,260.2a2.006,2.006,0,0,0,2-2v-9.7a2,2,0,1,0-4,0v9.7A2.006,2.006,0,0,0,341.9,260.2Z" fill="#3eaafa"/>
        <path id="Path_479" data-name="Path 479" d="M332.3,282.2a2.006,2.006,0,0,0,2-2v-9.7a2,2,0,0,0-4,0v9.7A2.006,2.006,0,0,0,332.3,282.2Z" fill="#3eaafa"/>
        <path id="Path_480" data-name="Path 480" d="M341.9,282.2a2.006,2.006,0,0,0,2-2v-9.7a2,2,0,0,0-4,0v9.7A2.006,2.006,0,0,0,341.9,282.2Z" fill="#3eaafa"/>
        <path id="Path_481" data-name="Path 481" d="M332.3,304.2a2.006,2.006,0,0,0,2-2v-9.7a2,2,0,0,0-4,0v9.7A2.006,2.006,0,0,0,332.3,304.2Z" fill="#3eaafa"/>
        <path id="Path_482" data-name="Path 482" d="M341.9,304.2a2.006,2.006,0,0,0,2-2v-9.7a2,2,0,0,0-4,0v9.7A2.006,2.006,0,0,0,341.9,304.2Z" fill="#3eaafa"/>
        <path id="Path_483" data-name="Path 483" d="M351.9,260.2a2.006,2.006,0,0,0,2-2v-9.7a2,2,0,1,0-4,0v9.7A2.006,2.006,0,0,0,351.9,260.2Z" fill="#3eaafa"/>
        <path id="Path_484" data-name="Path 484" d="M351.9,282.2a2.006,2.006,0,0,0,2-2v-9.7a2,2,0,0,0-4,0v9.7A2.006,2.006,0,0,0,351.9,282.2Z" fill="#3eaafa"/>
        <path id="Path_485" data-name="Path 485" d="M351.9,304.2a2.006,2.006,0,0,0,2-2v-9.7a2,2,0,0,0-4,0v9.7A2.006,2.006,0,0,0,351.9,304.2Z" fill="#3eaafa"/>
        <path id="Path_486" data-name="Path 486" d="M341.9,326.1a2.006,2.006,0,0,0,2-2v-9.7a2,2,0,0,0-4,0v9.7A2.006,2.006,0,0,0,341.9,326.1Z" fill="#3eaafa"/>
        <path id="Path_487" data-name="Path 487" d="M351.9,326.1a2.006,2.006,0,0,0,2-2v-9.7a2,2,0,0,0-4,0v9.7A2.006,2.006,0,0,0,351.9,326.1Z" fill="#3eaafa"/>
        <path id="Path_488" data-name="Path 488" d="M619.9,35a49.335,49.335,0,0,1,5.4,8.1c.6,1.2,1.3,2.4,2,3.6.5.8.9,1.7,1.4,2.5a3.623,3.623,0,0,1,.6,2.3c-.1,1.5-.1,3.1-.1,4.6v1.6a3.394,3.394,0,0,0,3.4,3.5h3.6a3.394,3.394,0,0,0,3.4-3.5V56.5c0-1,0-2.1-.1-3.1a7.423,7.423,0,0,1,1.3-5.1c1-1.6,1.9-3.2,2.8-4.7,1.1-1.9,2.2-3.8,3.3-5.6.8-1.2,1.6-2.3,2.5-3.4.6-.7,1.1-1.4,1.6-2.1a18.924,18.924,0,0,0,3.6-8.6c.1-.6.1-1.2.2-1.9v-.2a5.333,5.333,0,0,0,2.8.4,5.171,5.171,0,0,0,2.8-1.3l.2.1a8.835,8.835,0,0,0,8.2.5,1.1,1.1,0,0,1,.8,0,6.669,6.669,0,0,0,7.3-.8,6.318,6.318,0,0,0,2.2-7,6.4,6.4,0,0,0-5.5-4.9,1.185,1.185,0,0,1-.7-.4,8.812,8.812,0,0,0-9.2-4.2,9.151,9.151,0,0,0-7.5,7.3.349.349,0,0,1-.1.2h-.2A5.467,5.467,0,0,0,653,13v-.1A20.214,20.214,0,0,0,638.5.9a22.3,22.3,0,0,0-2.3-.4c-.4,0-.7-.1-1.1-.1h-1.8l-.3.1c-.1,0-.2.1-.4.1A20.351,20.351,0,0,0,615,28.2,77.63,77.63,0,0,0,619.9,35Zm36.8-20.3h.4a2.692,2.692,0,0,0,2-.2,2.313,2.313,0,0,0,.6-1.9h0a5.652,5.652,0,0,1,4.4-5.4,5.457,5.457,0,0,1,6.2,3,2.372,2.372,0,0,0,2.4,1.6,3.272,3.272,0,1,1-2,5.9,2.018,2.018,0,0,0-1.4-.5,2.421,2.421,0,0,0-1.3.4,5.742,5.742,0,0,1-6.6-.6,2.06,2.06,0,0,0-1.7-.7,2.115,2.115,0,0,0-1.4,1.2,2.006,2.006,0,0,1-2.2.9,2.051,2.051,0,0,1-1.3-1.9A2.337,2.337,0,0,1,656.7,14.7ZM635.9,57.6h-3.4V55.3H636v2.2C636,57.6,636,57.6,635.9,57.6Zm-3.2-5.7v-.3h3.4v.3ZM637,48h-5c-.3-.5-.6-1.1-.9-1.7h6.8A14.677,14.677,0,0,0,637,48ZM620.4,11a17.147,17.147,0,0,1,11.3-7.3A16.779,16.779,0,0,1,651,16.9a15.607,15.607,0,0,1-2,12.2c-.8,1.3-1.7,2.4-2.5,3.5a53.225,53.225,0,0,0-6.5,10c-.2.3-.2.3-.5.3h-1.3l.4-1.1c.5-1.2.9-2.4,1.4-3.6l.7-1.8a76.1,76.1,0,0,0,3.3-9.5v-.2c0-.2.1-.3.1-.5a1.7,1.7,0,0,0-1.3-2,1.636,1.636,0,0,0-2,1.2,2.921,2.921,0,0,0-.2.9c-.1.4-.2.8-.3,1.1-.8,2.1-1.6,4.3-2.4,6.4-.6,1.5-1.1,3-1.6,4.4l-.1.2-1.5,4.2a.349.349,0,0,1-.1.2h-.4c-.3,0-.3,0-.4-.2l-3.9-10.2a1.709,1.709,0,0,0-2.3-1.1,1.591,1.591,0,0,0-.9.9,1.946,1.946,0,0,0,0,1.5l2.1,5.4,1.3,3.5c0,.1.1.2.1.3h-1.1l-.1-.1a68.351,68.351,0,0,0-7.5-11.2,18.731,18.731,0,0,1-3.6-7A17.22,17.22,0,0,1,620.4,11Z" fill="#3eaafa"/>
        <path id="Path_489" data-name="Path 489" d="M624,24.4c.2,1.2.5,2.3.8,3.5l.2.6a1.548,1.548,0,0,0,.8,1.1,1.884,1.884,0,0,0,.8.2.9.9,0,0,0,.5-.1,1.768,1.768,0,0,0,1.2-2.2c0-.1-.1-.2-.1-.4V27a25.942,25.942,0,0,1-1.1-6.9V18.9a1.892,1.892,0,0,0-1.7-2,2.106,2.106,0,0,0-1.3.5,1.964,1.964,0,0,0-.5,1.5v.3C623.7,21.1,623.8,22.8,624,24.4Z" fill="#3eaafa"/>
        <path id="Path_490" data-name="Path 490" d="M643,23.4h.1a1.75,1.75,0,0,0,1.7-1.7,2.769,2.769,0,0,1,.1-.9h.1v-2c0-.2,0-.3-.1-.4a1.921,1.921,0,0,0-1.8-1.4,1.645,1.645,0,0,0-1.6,1.6,26.208,26.208,0,0,0-.1,2.8A1.76,1.76,0,0,0,643,23.4Z" fill="#3eaafa"/>
        <path id="Path_491" data-name="Path 491" d="M629.6,9.3c.1.1.2.1.3.2l.2.2.3-.1c.1,0,.2-.1.3-.1.2-.1.4-.1.6-.3.6-.5,1.3-1.1,2-1.7a1.569,1.569,0,0,0,.1-2.2,1.738,1.738,0,0,0-2.3-.4,11.232,11.232,0,0,0-2,1.8,1.914,1.914,0,0,0-.2,1.8C628.9,8.8,629.3,9.1,629.6,9.3Z" fill="#3eaafa"/>
        <path id="Path_492" data-name="Path 492" d="M242,183.6a9.689,9.689,0,0,0,9.6,8.4h8.2c.1,0,.2,0,.2.1a9.47,9.47,0,0,0,8.5,4.6h24a7.568,7.568,0,0,0,1.5-.1,10.558,10.558,0,0,0,9.2-11.7,10.79,10.79,0,0,0-11.6-9.6c-.3,0-.3,0-.4-.2a12.12,12.12,0,0,0-12-5.2,11.627,11.627,0,0,0-1.8.4,10.039,10.039,0,0,1-2.4.4c-.3,0-.3,0-.4-.2a12.738,12.738,0,0,0-9.3-5.4,12.459,12.459,0,0,0-10,3.7,14.635,14.635,0,0,0-2.1,2.8c-.2.3-.5.7-.7,1a9.6,9.6,0,0,0-9.8,5.8,8.3,8.3,0,0,0-.6,2.1c-.1.3-.1.6-.2.9V183l.1.4C241.9,183.4,242,183.5,242,183.6Zm38.4-10q5.4-.45,8.4,4.5a1.948,1.948,0,0,0,2.6,1.1,6.881,6.881,0,0,1,5.2,1,6.657,6.657,0,0,1,3,4.6,6.9,6.9,0,0,1-5.6,8,6.6,6.6,0,0,1-1.4.1H268.5a5.93,5.93,0,0,1-1-11.8,8.479,8.479,0,0,1,2.3.1c1.6.3,2.2,0,2.8-1.5C274,175.9,276.6,173.9,280.4,173.6ZM250,176.5a4.145,4.145,0,0,1,1.6-.2,9.972,9.972,0,0,1,1.6.2,1.91,1.91,0,0,0,2.7-1.4,8.847,8.847,0,0,1,16.2-1.8l-2.7,3.9a9.582,9.582,0,0,0-8,2.9,9.756,9.756,0,0,0-2.7,8h-7.2a5.912,5.912,0,0,1-5.8-5A6.021,6.021,0,0,1,250,176.5Z" fill="#3eaafa"/>
        <path id="Path_493" data-name="Path 493" d="M150.3,326.6a2.112,2.112,0,0,0,2.1-2.1v-4.9a2.112,2.112,0,0,0-2.1-2.1,2.051,2.051,0,0,0-2.1,2.1v4.9A2.051,2.051,0,0,0,150.3,326.6Z" fill="#3eaafa"/>
        <path id="Path_494" data-name="Path 494" d="M150.3,341.3a2.112,2.112,0,0,0,2.1-2.1v-4.9a2.112,2.112,0,0,0-2.1-2.1,2.051,2.051,0,0,0-2.1,2.1v4.9A2.051,2.051,0,0,0,150.3,341.3Z" fill="#3eaafa"/>
        <path id="Path_495" data-name="Path 495" d="M150.3,311.9a2.112,2.112,0,0,0,2.1-2.1V305a2.112,2.112,0,0,0-2.1-2.1,2.051,2.051,0,0,0-2.1,2.1v4.9A2.03,2.03,0,0,0,150.3,311.9Z" fill="#3eaafa"/>
        <path id="Path_496" data-name="Path 496" d="M139.8,341.3a2.112,2.112,0,0,0,2.1-2.1v-4.9a2.112,2.112,0,0,0-2.1-2.1,2.051,2.051,0,0,0-2.1,2.1v4.9A2.051,2.051,0,0,0,139.8,341.3Z" fill="#3eaafa"/>
        <path id="Path_497" data-name="Path 497" d="M139.8,326.6a2.112,2.112,0,0,0,2.1-2.1v-4.9a2.112,2.112,0,0,0-2.1-2.1,2.051,2.051,0,0,0-2.1,2.1v4.9A2.051,2.051,0,0,0,139.8,326.6Z" fill="#3eaafa"/>
        <path id="Path_498" data-name="Path 498" d="M139.8,311.9a2.112,2.112,0,0,0,2.1-2.1V305a2.112,2.112,0,0,0-2.1-2.1,2.051,2.051,0,0,0-2.1,2.1v4.9A2.03,2.03,0,0,0,139.8,311.9Z" fill="#3eaafa"/>
        <path id="Path_499" data-name="Path 499" d="M875.2,354.1H753.5V338.3a20.5,20.5,0,1,0-3.4,0v15.8H739.9v-.7h2a1.792,1.792,0,0,0,1.8-1.8v-3.1a4.928,4.928,0,0,0-3.8-4.8v-2.1a1.8,1.8,0,0,0-3.6,0v2h-4v-2a1.8,1.8,0,0,0-3.6,0v2.1a4.928,4.928,0,0,0-3.8,4.8v3.1a1.792,1.792,0,0,0,1.8,1.8h2v.7h-14v-8.3a16.8,16.8,0,1,0-3.6,0v8.3H680.2c8.3-45.1,5.1-88.4-17.4-129.5h13.9c1.4,0,2.4-.4,2.4-2s-1.1-1.9-2.5-1.9c-4.5,0-9-.1-13.6.1a3.893,3.893,0,0,1-4-2.2,155.043,155.043,0,0,0-40.6-44.4c-2.5-1.9-3.6-3.6-3.3-6.7a60.257,60.257,0,0,0,0-9.5c0-.7-1.2-1.7-1.9-1.8-.5-.1-1.3,1.1-1.8,1.8-.3.4-.1,1.1-.1,1.7V221h-10c-1.4,0-2.7.1-2.7,1.9,0,1.7,1.2,2,2.6,1.9,3.3-.1,6.6,0,10,0V354.3H593V312.6l-.5.5v-2.4a20.088,20.088,0,0,0-.1-2.5,14.037,14.037,0,0,1,.1-3.6c1.2-5.7-1.7-9.9-5.1-13.5a5.508,5.508,0,0,0-2.7-1.2,17.041,17.041,0,0,1-1.9,1.9c-2.5,2.5-4.8,4.8-4.8,8.6v12.7l-1.6-1.6c-2.9-2.9-5.4-4.3-7.8-4.3-2.2,0-4.4,1.2-6.6,3.7l-.8.9-1.9-2.9.3-.5c.2-.3.4-.7.6-1a16.546,16.546,0,0,1,1.5-2.5,2.508,2.508,0,0,0,.1-3.5,6.689,6.689,0,0,1-1.7-4c-.1-13.2-.1-26.5,0-39.8a7.358,7.358,0,0,1,1.7-4.1,2.417,2.417,0,0,0,0-3.5,6.928,6.928,0,0,1-1.7-4c-.1-11.2-.1-22.6-.1-33.7v-4.1a13.547,13.547,0,0,1,.2-2c0-.3.1-.6.1-1l.1-.8,1.6-.1c.5,0,.9-.1,1.4-.1,4.6-.1,4.6-.1,4.6-4.6V134.9c0-1.2,0-2.6-.7-3.2a2.076,2.076,0,0,0-1.5-.4h0a1.813,1.813,0,0,0-1.4.5c-.6.6-.6,2-.5,3.4v4.7l-6.7-.3v-6.1c0-4.6,0-9-.1-13.5,0-1.6-.6-3.3-1.1-3.5-.1,0-.2-.1-.4-.1a15.639,15.639,0,0,0-2.2.5,13.32,13.32,0,0,1-1.9.5l-.6.1-.4-.5c-6.7-8.2-6.9-9-7.1-20.1a40.45,40.45,0,0,0-1-9.3c-.2-.6-.3-1.3-.5-1.9a10.627,10.627,0,0,0,5,1.3h8.9c.3,0,.4,0,.5.2a10.176,10.176,0,0,0,8.9,4.9h25.9a8.6,8.6,0,0,0,1.6-.1,11.176,11.176,0,0,0,9.7-12.3,10.555,10.555,0,0,0-4.1-7.5,11.067,11.067,0,0,0-8.1-2.5.735.735,0,0,1-.8-.4,12.869,12.869,0,0,0-12.7-5.5c-.7.1-1.3.3-1.9.4a8.423,8.423,0,0,1-2.7.4c-.4,0-.5-.1-.6-.3a13.194,13.194,0,0,0-20.3-1.8,17.038,17.038,0,0,0-2.3,3l-.9,1.2a10.259,10.259,0,0,0-10.5,5.9c-3.1-8.6-6-17.6-5.3-27.4a1.955,1.955,0,0,0-.4-1.4,2.26,2.26,0,0,0-1.5-.5h-.2a1.557,1.557,0,0,0-1.4.6,2.107,2.107,0,0,0-.3,1.7c.9,7.9-1.5,15.1-3.8,22.2l-.6,1.8c-.4,1.3-.9,2.7-1.3,4-3.2,9.8-6.6,19.9-5.2,30.7a4.908,4.908,0,0,1-.7,3.1c-1.6,2.5-3.3,5-4.7,7.2l-1.8,2.6-.6-.1a11.7,11.7,0,0,1-2-.5,9.976,9.976,0,0,0-2-.4c-.2,0-.3,0-.4.1-.5.3-.9,2-1.1,2.9l-.1.5a7.746,7.746,0,0,0-.1,2.2v17.6h-6.9v-5.7c0-2.5-.2-3.4-2.1-3.5-1.2,0-1.5.4-1.7.8a6.36,6.36,0,0,0-.3,2.5v66.9c0,3.2.3,3.6,3.6,3.6h4.1l.2.7c.1.2.1.4.2.6a2.958,2.958,0,0,1,.2,1v40.4a4.33,4.33,0,0,1-1.5,2.9,2.91,2.91,0,0,0-1.2,2,3.123,3.123,0,0,0,1.1,2,5.177,5.177,0,0,1,1.6,3.2c.1,14,.1,27.7,0,40.7a5.554,5.554,0,0,1-1.7,3.5c-1.4,1.3-1.4,2.2-.2,3.8a8.6,8.6,0,0,1,1.9,4.1c.1,12,.1,24.3.1,36.1v6.2c0,.7-.1,1.3-.1,2a2.814,2.814,0,0,1-.1.8H482.6a3.083,3.083,0,0,1-.1-1,7.82,7.82,0,0,0-1.3-5.3c-1.8-2.7-1.8-5.6-1.7-8.6v-.9a15.037,15.037,0,0,0,0-3c-.3-2.2.4-3.1,2.8-3.6,11-2.1,18.9-13.8,16.8-25a22.357,22.357,0,0,0-12-16.3,22.614,22.614,0,0,0-20.7.5c-.7.3-1.6.8-1.8.7s-.2-1.2-.2-1.9V278.3c0-5.8-1.8-7.5-7.6-7.5H436.5c-1.5,0-2.4,0-2.7-.3s-.3-1.2-.3-2.8v-36c0-4.8-1.8-6.7-6.5-6.8V152.7a4.7,4.7,0,0,0-4.7-4.7H402.9a4.8,4.8,0,0,0-4.8,4.8v72.1c-2.5,0-4.1.5-5.1,1.5s-1.5,2.6-1.5,5.1v61.6c0,1.4,0,2.3-.3,2.5s-1.1.1-2.4-.2a20.375,20.375,0,0,0-18.3,6,20.108,20.108,0,0,0-5.1,18.4q2.85,12.45,15.9,15.6c1.6.4,2.1,1,2.1,2.6-.1,4.4-.1,9.2,0,15a2.787,2.787,0,0,1-.1,1H367.8v-.2a25.386,25.386,0,0,0,0-3.9v-1.7c0-2.2-.5-2.8-2.6-2.9h-.5V242.7a6.274,6.274,0,0,0-6.3-6.3H324.7a6.274,6.274,0,0,0-6.3,6.3v65.6l-7-7c-3.6-3.6-7.5-7.3-12.8-8.9-1.7-.5-3.4-1-5.1-1.4a17.416,17.416,0,0,0-2.2-.5l-.5-.1V276.6c0-4.7-3.2-7.9-8-8h-2.9V234.2h3.3a1.964,1.964,0,0,0,2-1.6c.2-.6.2-1.4-1-2.2-1.3-.9-2.5-1.8-3.7-2.7l-10.7-7.8c-4.9-3.6-9.9-7.2-14.9-10.8a3.311,3.311,0,0,0-2-.9,2.916,2.916,0,0,0-1.5.6c-8.3,6-16.5,12-24.8,18l-4.8,3.5a2.058,2.058,0,0,0-1.1,2.3,2.194,2.194,0,0,0,2.3,1.6h3v120H212.4v-6.7c2.7-.7,4.7-2.5,6.2-5.4a23.979,23.979,0,0,0,2.1-7.8,48.628,48.628,0,0,0-.2-10.7,59.05,59.05,0,0,0-3.3-14.7,16.9,16.9,0,0,0-3.7-6.3c-2-2-4.4-2-6.5,0l-.1.1a6.342,6.342,0,0,0-1,1.2,9.992,9.992,0,0,1-.8,1.4,24.41,24.41,0,0,0-2.1,4.3,56.554,56.554,0,0,0-3.3,16.2,38.865,38.865,0,0,0,.6,12.1c.9,4,2.6,8.2,7.7,9.8v6.6h-.8a10.84,10.84,0,0,0-10.3-6.5,10.3,10.3,0,0,0-6.8,3c-.2.2-.2.2-.3.1a7.057,7.057,0,0,0-7.7,2.1l-.9,1.2h-6.1V312.8a1.936,1.936,0,0,0-1-1.7l-11.9-7.4V275.2h0V262.6a2.1,2.1,0,0,0-4.2,0v11.5L142.2,284l-12.1-10.2a2.19,2.19,0,0,0-2.2-.3,2.121,2.121,0,0,0-1.2,1.9v34l-9.7-6.1a2.224,2.224,0,0,0-2.1-.1,2.107,2.107,0,0,0-1.1,1.8v49.4H1.9A1.9,1.9,0,0,0,0,356.3a1.839,1.839,0,0,0,1.9,1.9H875.2a1.9,1.9,0,0,0,1.9-1.9A2.182,2.182,0,0,0,875.2,354.1ZM734.7,317.9a17,17,0,1,1,18.8,16.9v-8.7l3.2-3.2a1.768,1.768,0,0,0-2.5-2.5l-2.5,2.5-2.5-2.5a1.768,1.768,0,0,0-2.5,2.5l3.2,3.2v8.7A17.092,17.092,0,0,1,734.7,317.9Zm-35,11.3a13.3,13.3,0,1,1,26.6,0,13.1,13.1,0,0,1-11.5,13.1v-7.4l3.2-3.2a1.69,1.69,0,0,0,0-2.4,1.751,1.751,0,0,0-2.5,0l-2.5,2.5-2.5-2.5a1.751,1.751,0,0,0-2.5,0,1.69,1.69,0,0,0,0,2.4l3.2,3.2v7.4A13.175,13.175,0,0,1,699.7,329.2ZM206.1,340.4a17.029,17.029,0,0,1-1.5-6,61.1,61.1,0,0,1,2.8-23.7,22.222,22.222,0,0,1,1.4-3.2l.3-.5a3.941,3.941,0,0,1,.9-1.1,1.382,1.382,0,0,1,.9-.5h0a1.035,1.035,0,0,1,.7.5,10.572,10.572,0,0,1,1.7,2.6,36.45,36.45,0,0,1,2.9,11c.3,2.2.5,4.4.7,6.3v.2c.1.7.1,1.3.2,1.7,0,4.6-.1,7.9-1,11.1-.2.5-.4,1-.6,1.6a4.842,4.842,0,0,1-4.6,3h0A4.925,4.925,0,0,1,206.1,340.4Zm522.4,9.5v-1.3a1.367,1.367,0,0,1,1.4-1.4h8.7a1.367,1.367,0,0,1,1.4,1.4v1.3Zm3.7,3.6h4v.7h-4ZM615.6,224.7h2.8c1.3.1,2.3-.5,2.3-1.9,0-1.6-1-2-2.4-2h-2.7V177c1.5,1.1,2.9,1.9,4.2,2.9a155.224,155.224,0,0,1,37.7,43.4A163.1,163.1,0,0,1,678.2,281a188.311,188.311,0,0,1,2,41.1,240.746,240.746,0,0,1-3.9,31.7.367.367,0,0,1-.1.3H664.4c.7-4.9,1.5-9.7,2.1-14.5.7-5.6,1.1-11.2,1.5-16.8.2-2.2-1.2-2.5-3-2.5H629.7c-2.7,0-3.1.4-3.1,3.1v30.7H615.4V224.7ZM631,354.1V324.3h33c-.1,2.3-.1,4.6-.4,6.9-1,7.6-2.2,15.3-3.3,22.9Zm-48.4,0V321h3.6c.3,0,.6.1,1,.1l1.5.2v29.1c0,1.6,0,2.9-.5,3.7h-5.6Zm-.2-38.8a33.16,33.16,0,0,0,.1-6.3c-.2-4.2-.3-8.5,2.1-12.7l.8-1.3.8,1.2c2.9,4.1,2.7,8.5,2.5,12.7a33.165,33.165,0,0,0,.1,6.3l.1,1.1h-6.7Zm-18.7-.6c2.2-2,3.6-3.2,5.2-3.2s3.2,1.1,6.1,3.2l2.5,1.7H561.9Zm14.4,6.4v33H560.7v-33Zm-72-67.1h49.8v46.8H506.1V254Zm-.1-4.8V204.6h49.8v44.6H506Zm72.3-182a9.613,9.613,0,0,1,9.4,5,2.005,2.005,0,0,0,2.5,1.1,7.74,7.74,0,0,1,9.2,6.3,7.8,7.8,0,0,1-6.3,9,8.6,8.6,0,0,1-1.6.1h-26a6.687,6.687,0,0,1-1.2-13.3,10.879,10.879,0,0,1,2.6.1c1.6.3,2.1,0,2.7-1.5C571.2,69.9,574.1,67.6,578.3,67.2Zm-32.9,3.3a5.55,5.55,0,0,1,3.6,0,1.737,1.737,0,0,0,2.5-1.3,10.054,10.054,0,0,1,8.7-7,9.819,9.819,0,0,1,9.5,5.2l-3.1,4.5a10.237,10.237,0,0,0-11.3,11.8h-8.2a6.731,6.731,0,0,1-1.7-13.2Zm-14.7-7.4,8.1,25.6H522.7ZM522.5,93h17.1v11.9H522.5Zm-8.8,27.1c2.1-3.1,4-6.1,6.1-8.9a5.333,5.333,0,0,1,3.6-1.9c2.4-.1,5-.1,7.6-.1,2.4,0,4.9,0,7.3.1a4.358,4.358,0,0,1,3.4,1.7c2.1,3,4.1,6,6.2,9.2l3.2,4.9H510.4S513,121.3,513.7,120.1Zm-4.8,9.8h44.4v9.4H508.9ZM497.8,200V144h66.1v56Zm8.3,105.4h49.7v48.7H506.1V305.4Zm-67.8,48.7a2.485,2.485,0,0,1,.1-.8,10.444,10.444,0,0,1,5.7-7.3c5.1-2.4,9.6-1.9,13.4,1.3,1.9,1.6,3.2,1.5,4.9-.4,2.7-3,6.1-3.9,10.2-2.5a9.1,9.1,0,0,1,6,7.9,8.663,8.663,0,0,1-.1,1.8Zm-43.7,0a7.912,7.912,0,0,1,.5-1.3c1.7-3.2,4-4.9,7-5.2,2.1-.2,3.3-1.2,4-3.4a11.707,11.707,0,0,1,20.4-3.7c2.5,3,2.6,3.1,5.9,1.6l.2-.1a11.826,11.826,0,0,1,8.9-.4c.4.1.7.3.7.5.1.2.1.2-.4.4-.1.1-.2.1-.3.2-4.5,2.9-7,6.6-7.5,11.3a.367.367,0,0,1-.1.3H394.6Zm11.5-39.5h14.4v14.8c0,1.2-.1,1.9-.4,2.2a2.684,2.684,0,0,1-2,.3,15.132,15.132,0,0,0-15.3,9.2c-.8,2-2.3,2.5-4,3a9.173,9.173,0,0,0-2.3.9.31.31,0,0,1-.2.1,1.6,1.6,0,0,1-.2-1v-9.7a2.482,2.482,0,0,1,1.3-2.1A19.783,19.783,0,0,0,406.1,314.6Zm49.8,0H424.7V298.1h34.5Q454.25,306.5,455.9,314.6Zm-31.1,4h32.4a26.959,26.959,0,0,0,2.4,4.4,6.236,6.236,0,0,1,1.1,3.4v14.7c0,1.2-.2,1.9-.5,2.1s-1.1,0-2.2-.6c0,0-4-2.1-7.2-2.1h-.1c-2.9,0-3.5-.4-4.7-1.2a19.633,19.633,0,0,0-4.6-2.2c-3.6-1.3-7.7,0-9.8.9-1.1.5-1.6.4-2.1-.4a3.189,3.189,0,0,0-1.3-1.3c-3.4-1.7-3.6-4.5-3.5-8.3C424.8,324.7,424.8,321.4,424.8,318.6ZM465,329.8c0-.8.1-1,.2-1,0,0,.2-.1.9.3a23.494,23.494,0,0,0,8.2,3.1c1,.2,1.4.6,1.3,1.5v1.5c0,.6.1,1.3.1,1.9.1,1.4.3,2.8-.3,3.5-.5.6-1.3.3-2.5-.2a7.061,7.061,0,0,0-2.4-.6h-.1a24.368,24.368,0,0,0-2.7.1c-1.4.2-2.2.3-2.5.1-.3-.3-.3-1.2-.3-2.7v-4.5C465,331.8,465,330.8,465,329.8Zm-1.7-30.3a17.851,17.851,0,0,1,14.2-7.1,19.587,19.587,0,0,1,6.2,1,17.466,17.466,0,0,1,11.8,16.9,17.782,17.782,0,0,1-13.4,17.4c-.9.2-1.4.2-1.7,0s-.5-.8-.5-1.7c0-2.3.1-3.7,2.5-4.5,2.3-.8,3.8-2.9,4.3-5.9.2-1.5-.3-2.6-1.6-2.9a1.876,1.876,0,0,0-1.5.2,2.612,2.612,0,0,0-1,1.8,4.424,4.424,0,0,1-.5,1.5c-.5.9-1,1.7-1.7,1.6-.5-.1-.5-.3-.4-1.1,0-.3.1-.6,0-.8a12.1,12.1,0,0,1-.1-1.9,14.083,14.083,0,0,0-.1-2c-.2-1.4-1-2.2-2.3-2.1-1.1.1-1.7.9-1.8,2.3v4.9c0,.6,0,.9-.4,1s-.8-.1-1.4-.6a4.588,4.588,0,0,1-1.3-2.8,3.165,3.165,0,0,0-1-1.8,1.555,1.555,0,0,0-1.5-.2,2.178,2.178,0,0,0-1.5,2.7q.3,4.95,5.7,6.9c.6.2,1.2,1.2,1.5,2.5a3.75,3.75,0,0,1-.2,2.9c-.4.4-.9.4-1.7.2l-.2-.1a17.494,17.494,0,0,1-12.6-11.3A16.98,16.98,0,0,1,463.3,299.5Zm-5.7-24.4c2.8,0,3,.2,3,3v16h-36v-16c0-2.9.1-3,2.9-3ZM402.5,152.8a.9.9,0,0,1,.9-.9h19.4a.684.684,0,0,1,.7.7v71.7h-21Zm-5.9,76.7c.4-.4,1.4-.4,3.2-.4h27.1a2.889,2.889,0,0,1,2.2.6,2.928,2.928,0,0,1,.6,2.1v12.6H396.2V232.8C396.2,230.9,396.2,230,396.6,229.5Zm33.1,34.6H396.2V248.3h33.5Zm-33.4,4h33.5v.7c0,1.8-.6,2.1-2.2,2.1-5.4.1-7,1.8-7,7.3v9.7H396.2C396.2,281.5,396.3,274.9,396.3,268.1Zm-.2,24.4v-.7h24.4v18.8h-15a23.224,23.224,0,0,0-2.8-6.7,4.327,4.327,0,0,0,2.2-2.4,4.039,4.039,0,0,0-.2-3.4,1.823,1.823,0,0,0-1.9-1.1,1.846,1.846,0,0,0-1.9,1.6,13.61,13.61,0,0,0-.2,2.1v.5c-2.7-1.9-4.7-3.4-4.6-7.4Zm-12.6,38.9c-.1.3-.3.3-1.1.1a.9.9,0,0,0-.5-.1,16.384,16.384,0,0,1-12.2-13.3c-.9-7.1,2.3-13.7,8.2-16.8a15.739,15.739,0,0,1,7.9-2h.1A16.062,16.062,0,0,1,402,314.2c.7,7.9-3.8,14.5-11.6,16.9-.9.3-1.7.5-2,.3s-.3-1-.4-2.1c-.2-2.7.2-4.2,2.7-5.2,1.9-.7,3.1-2.5,3.5-5.3.2-1.5-.4-2.6-1.7-2.8-.7-.1-1.9,0-2.4,1.9a6.47,6.47,0,0,1-.4,1.3c-.4.9-.8,1.4-1.3,1.3-.3-.1-.4-.2-.3-.9V319c0-.5-.1-1-.1-1.4a12.1,12.1,0,0,0-.1-1.9,2.143,2.143,0,0,0-2.3-2.1c-1.1.1-1.7.9-1.7,2.3v4c0,.7,0,.9-.5,1-.7.1-1.2-.6-1.4-.9a5.27,5.27,0,0,1-.5-1.5c0-.2-.1-.3-.1-.5-.2-.5-.6-2.2-2.4-1.9-1.3.2-1.9,1.2-1.8,2.8.3,2.8,1.9,4.8,4.7,6.1a1.854,1.854,0,0,0,.7.2c.8.2,1.2.4,1.2,1.1a6.15,6.15,0,0,0,.1,1.3A9.681,9.681,0,0,1,383.5,331.4Zm4.5,22.3V338.1a2.927,2.927,0,0,1,1-2.3,2.818,2.818,0,0,1,2.4-.5c.6.1.6.4.6,1.1v3.5c0,3,.1,6.2-.1,9.3a10.684,10.684,0,0,1-1.2,3.7c-.2.4-.4.9-.6,1.3H388C388,354,388,353.9,388,353.7Zm-65.2-111a2.263,2.263,0,0,1,2.3-2.3h33.7a2.263,2.263,0,0,1,2.3,2.3V344.9a24.612,24.612,0,0,1-12.6-6.9l-14.2-14.2v-9.2a2,2,0,0,0-4,0v5.2c-2.4-2.4-4.9-4.9-7.5-7.4V242.7Zm-42.5,29.8h3a3.473,3.473,0,0,1,3.8,3.8v10.2c0,2.5-1.3,3.9-3.9,3.9h-2.9Zm0,22.1h7.2c1.6,0,2.8,0,4,.1,5.8.4,11,3,15.8,7.8l17.4,17.4L345,340.2c5.1,5.1,10.7,8.1,17.3,9a3.091,3.091,0,0,1,.8.2l1,.2v4.7H350.6A24.3,24.3,0,0,1,343,349l-1.3-1.3c-12.2-12.1-24.8-24.6-37.1-37a29.675,29.675,0,0,0-21.8-9.1,7.568,7.568,0,0,1-1.5-.1c-.2,0-.3-.1-.5-.2l-.6-.3v-6.4Zm.4,11.4a2.564,2.564,0,0,1,1.9-.6,25.879,25.879,0,0,1,18.9,7.7c4.5,4.4,8.9,8.9,13.3,13.3,5.9,5.9,11.8,11.7,17.7,17.6,2.5,2.5,5,5,7.7,7.6l2.6,2.6H280.2V307.8A2.9,2.9,0,0,1,280.7,306Zm-50-10a1.594,1.594,0,0,1,.4-1.2,1.469,1.469,0,0,1,1.2-.4H274a2.7,2.7,0,0,1,1.9.6,2.04,2.04,0,0,1,.4,1.8,20.851,20.851,0,0,0,0,2.5v2H230.8v-2.1C230.7,298.1,230.7,297.1,230.7,296Zm38.5-9.9v-5.9c0-4.4,0-9-.1-13.5a15.53,15.53,0,0,0-15-14.6h-.4c-8.2,0-15.2,6.2-15.7,13.9-.3,4.8-.3,9.7-.2,14.4v10.1H231V245.3h45.3v45.1h-6.9v-.7C269.2,289.7,269.2,286.9,269.2,286.1Zm-27.6-12.5h0v-5.8a11.751,11.751,0,0,1,23.5-.1c.1,4.7.1,9.4.1,13.9v6.9a1.964,1.964,0,0,1-.5,1.5,1.7,1.7,0,0,1-1.3.4H242.9c-.2,0-.4-.1-.6-.1-.1,0-.2-.1-.3-.1l-.5-.1V275.9A18.485,18.485,0,0,0,241.6,273.6Zm30.3-32.5H233.6c-2.7,0-2.9-.3-3-3v-3.8l1.3-.1h41.6a3.068,3.068,0,0,1,2.1.6,3.223,3.223,0,0,1,.6,2.1v.2C276.1,240.8,275.8,241.1,271.9,241.1ZM242.3,339c.7-.7,1.7-.7,3.5-.7h17a2.465,2.465,0,0,1,1.8.6,2.237,2.237,0,0,1,.5,1.9v.2c-.1,4.1-.4,4.4-4.6,4.5H243.7c-1.5,0-2.2-.7-2.2-2.3V343C241.6,340.8,241.6,339.7,242.3,339Zm22.5-5a2.458,2.458,0,0,1-1.7.5h-19a2.564,2.564,0,0,1-1.9-.6,2.857,2.857,0,0,1-.6-1.9v-.2c.1-4,.4-4.3,4.6-4.3h16.9a2.353,2.353,0,0,1,1.6.5,2.265,2.265,0,0,1,.5,1.7v1.9h0C265.3,332.8,265.3,333.5,264.8,334Zm-23.1-23.6c0-1.2,0-2.2.1-3.4a2.031,2.031,0,0,1,1.7-1.5h20a2.015,2.015,0,0,1,1.7,1.7c.1,1.1.1,2.1.1,3.2v2H241.7v-.7C241.7,311.2,241.7,310.8,241.7,310.4Zm-.1,10.6c0-4.3.3-4.6,4.8-4.6H263a2.239,2.239,0,0,1,1.7.6,2.794,2.794,0,0,1,.5,1.7v.1c0,4.1-.2,4.6-4.4,4.6h-17a2.794,2.794,0,0,1-1.7-.5,2.265,2.265,0,0,1-.5-1.7V321Zm0,32.9v-.2c.1-4.2.4-4.4,4.7-4.5h16.8c1.8,0,2.1,1.1,2.1,2.2v.1a18.52,18.52,0,0,1-.1,2.5H241.5C241.6,354.1,241.6,354,241.6,353.9Zm27.6-2.1V308.2c0-2.5.3-2.8,2.8-2.8h.4c1.6,0,2.7,0,3.4.7.6.6.6,1.6.6,3.6v44.4h-7A7.525,7.525,0,0,1,269.2,351.8ZM231.9,228.3a5.5,5.5,0,0,1,.9-.7l5.4-3.9c4.2-3,8.9-6.5,13.5-9.8a2.875,2.875,0,0,1,1.8-.7,2.7,2.7,0,0,1,1.7.7c4.5,3.4,9.3,6.8,13.5,9.8l5,3.6c.4.3.7.5,1.2.9l2.4,1.8H229.9Zm-1.2,123.6V308.4c0-1.3,0-1.9.4-2.4.5-.5,1.2-.5,2.4-.5h4l.1,1.3v47.4h-6.9Zm-36.6,1.4a5.9,5.9,0,0,1,5.6-1.1,5.844,5.844,0,0,1,3.1,1.9h-8.3Zm-22.6-39.4v40.2h-8.8V308.4Zm-40-34.3,7.7,6.5-7.7,4.8Zm0,33.2v-17l12.2-7.6h.1l14.8-9.3v75.4H131.5V312.8Zm-12.9-4.3,8.8,5.5v40.2h-8.8Z" fill="#3eaafa"/>
      </g>
    </g>
  </g>
</svg>
